<?xml version="1.0" encoding="utf-8"?>
<!-- Generator: Adobe Illustrator 26.0.0, SVG Export Plug-In . SVG Version: 6.00 Build 0)  -->
<svg version="1.1" id="Layer_1" xmlns="http://www.w3.org/2000/svg" xmlns:xlink="http://www.w3.org/1999/xlink" x="0px" y="0px"
	 viewBox="0 0 1025.1 719.1" style="enable-background:new 0 0 1025.1 719.1;" xml:space="preserve">
<style type="text/css">
	.st0{clip-path:url(#SVGID_00000167376381305137420540000014245272990518870664_);}
	.st1{opacity:0.5;fill:#D5DEE2;enable-background:new    ;}
	.st2{opacity:0.79;fill:#D5DEE2;enable-background:new    ;}
</style>
<g id="Layer_2_00000037694585862058971100000017364255043739872138_">
	<g id="OBJECTS">
		<g>
			<defs>
				<rect id="SVGID_1_" x="1" y="-3" width="1024" height="723"/>
			</defs>
			<clipPath id="SVGID_00000072993584598534871880000003701986477063100814_">
				<use xlink:href="#SVGID_1_"  style="overflow:visible;"/>
			</clipPath>
			<g style="clip-path:url(#SVGID_00000072993584598534871880000003701986477063100814_);">
				<path class="st1" d="M233.7,639.3c9.4-54.4,41.9-101.5,84.4-132.7c20.9-15.3,44.1-26.9,68.6-34.2c27-8,55.3-10,74.9-34.2
					c34.4-42.4,19.5-105.2,22.7-156c2.7-43.1,15.3-84.8,36.6-121.6C558.4,96.8,621.7,57.7,690,41.9
					C835.5,8.4,1007.4,66,1106.1,184.5c8.8,10.6,17,21.7,24.6,33.4c136.7,211.6,71.4,665.7-220.1,670.4
					c-61.4,1-121.9-12.9-182.2-25.1c-112.8-22.8-227.6-30.7-341.2-47.4c-51.1-7.5-106.9-23.3-135.9-72.6
					C232,710.5,227.6,674.2,233.7,639.3z"/>
				<path class="st2" d="M314.5,609.5c8.8-46.6,39.5-88,86.1-102c18.4-5.5,37.9-6.5,56.2-12.7c54.1-18.3,52.5-84.5,53.8-134.1
					c7.3-280.2,369.6-255.9,489.1-71.1c103,159.4,53.8,501.5-165.8,505.1c-46.2,0.8-91.9-9.7-137.3-18.9
					c-97.2-19.6-195.7-24.6-292.8-41.4C340.1,723.3,301,680.7,314.5,609.5z"/>
				<path class="st1" d="M45.5,327c-41.8,1.6-83.6-2.9-124.2-13.5c-85.2-22.8-142.3-93.7-114.7-188.8
					C-173.5,56.2-121.1,3.7-67.2-36.3c43.7-32.2,90.4-59.6,139.3-81.9c33.9-15.5,70.5-36.2,108.7-32.9c33.6,2.9,63.5,0.2,93.6,21.1
					c84.9,58.7,112.3,176.8,72.3,273.6C296,266.2,169.1,322.6,45.5,327z"/>
			</g>
		</g>
	</g>
</g>
</svg>
