<?xml version="1.0" encoding="utf-8"?>
<!-- Generator: Adobe Illustrator 26.0.0, SVG Export Plug-In . SVG Version: 6.00 Build 0)  -->
<svg version="1.1" id="Layer_1" xmlns="http://www.w3.org/2000/svg" xmlns:xlink="http://www.w3.org/1999/xlink" x="0px" y="0px"
	 viewBox="0 0 400.2 300.7" style="enable-background:new 0 0 400.2 300.7;" xml:space="preserve">
<style type="text/css">
	.st0{fill:#FFFFFF;}
	.st1{fill:#E6E7E9;}
	.st2{fill:#E6E6E6;}
	.st3{fill:#F8C4B7;}
	.st4{fill:url(#SVGID_1_);}
	.st5{fill:#F8B5A5;}
	.st6{fill:#FBD2C1;}
	.st7{fill:url(#SVGID_00000000903204413556713080000013160111847277041058_);}
	.st8{fill:#4975CE;}
	.st9{fill:#EFA49E;}
	.st10{fill:#552504;}
	.st11{fill:url(#SVGID_00000181788501510303599120000002716945700080720286_);}
	.st12{fill:#FC5498;}
	.st13{fill:#8CC0FC;}
	.st14{fill:#0D1C81;}
	.st15{fill:url(#SVGID_00000072265320421663598560000018153850466956363439_);}
	.st16{clip-path:url(#SVGID_00000096054717486110794510000002498952786916218510_);}
	.st17{fill:#F4BDB3;}
	.st18{fill:url(#SVGID_00000157276140891041827370000007336014798630029958_);}
	.st19{fill:url(#SVGID_00000034805381029116241720000014498380034247342232_);}
	.st20{fill:url(#SVGID_00000009566182795694238280000013881922885351223938_);}
	.st21{fill:url(#SVGID_00000134239761119698360830000010076999401865838466_);}
	.st22{fill:url(#SVGID_00000088829132775645735140000013310775992964260007_);}
	.st23{fill:#FEC70A;}
	.st24{fill:url(#SVGID_00000031183474692982973420000017910654536252550303_);}
	.st25{fill:url(#SVGID_00000146468174207871551180000011809725500390208158_);}
	.st26{fill:url(#SVGID_00000116916368998687589760000008669547155748740019_);}
	.st27{fill:#A1C6F8;}
	.st28{fill:url(#SVGID_00000119092148070709875760000017601289629142310787_);}
	.st29{fill:url(#SVGID_00000089539066052728603730000006012865306942782654_);}
</style>
<g id="Layer_2_00000111883691284611031390000001651998902123927964_">
	<g id="OBJECTS">
		<rect x="112.5" y="2.7" class="st0" width="255.8" height="190"/>
		<path class="st1" d="M368.9,193.4H111.8V2h257.1L368.9,193.4L368.9,193.4z M113.1,192h254.4V3.3H113.1V192z"/>
		<rect x="136.4" y="64.2" class="st2" width="23.1" height="95"/>
		<rect x="175.2" y="41.6" class="st2" width="23.1" height="117.6"/>
		<rect x="210.7" y="41.6" class="st2" width="23.1" height="117.6"/>
		<rect x="312.5" y="26.4" class="st2" width="23.1" height="132.7"/>
		<rect x="278.8" y="47.3" class="st2" width="23.1" height="111.9"/>
		<rect x="243.5" y="70.6" class="st2" width="23.1" height="88.6"/>
		<path class="st3" d="M304.9,85.1c-0.1-0.7,0-1.7-1-1.8c-2-0.1-2.3,2.1-2.3,3.6c0,0.8,0.2,2.1-0.3,2.8c-0.4,0.6-0.6,0.5-0.8,0.2
			c-0.2-0.7-0.3-1.3-0.3-2c-0.3-3.2,0-6.4,0.8-9.6c0.3-1.1,0.6-2.3,0.7-3.4c0.1-1.2-0.2-2.3-1-3.2c-1.6-1.7-4.4-0.2-5.6,1.4
			c-0.8,1.3-1.4,2.8-1.7,4.4c-0.6,2.6-0.8,5.2-1.2,7.8c-0.5,3.6-1.4,7.2-2.6,10.6c-3.1,7.9-11,13.1-16.8,19c-6,6.1-12,12.2-18,18.3
			l-26.4,8.6l11.4,24.2l11.5-7.4c3.5-2.3,6.8-4.9,10.4-7.1c11-7.1,16.7-20.6,24.1-30.9c1.7-2.4,3.1-5,4.8-7.4
			c2.8-4.2,7-7.9,10.5-11.6c2.4-2.4,3.9-5.6,4.3-9C305.5,89.9,305.3,87.5,304.9,85.1z"/>
		
			<linearGradient id="SVGID_1_" gradientUnits="userSpaceOnUse" x1="377.2487" y1="951.4012" x2="397.0287" y2="972.8013" gradientTransform="matrix(1 0 0 1 -220.24 -850)">
			<stop  offset="0" style="stop-color:#F7327A"/>
			<stop  offset="1" style="stop-color:#D80E6A"/>
		</linearGradient>
		<path class="st4" d="M170.3,76.4c-1.5,1.5-2.8,3.1-4,4.8c-7.1,10.2-4.3,22.5-8.9,33.5c-2.2,5.2-6.3,9.2-9.7,13.7
			c-8.4,11.1-12.1,25.1-10.3,38.9c1.4,10.7,6.9,21.7,16.7,26.3c6,2.8,12.9,3,19.5,2.3c10.4-1.1,20.5-4.4,30.3-8.1
			c4.5-1.5,8.8-3.7,12.8-6.3c3.9-2.8,7.1-6.6,8.4-11.2c3-10.5-5.1-21.1-4.7-32c0.3-9,6.1-16.7,9.6-25c7.1-16.8,2-35.8-15.2-43.5
			C200.4,63.3,181.6,65.1,170.3,76.4z"/>
		<path class="st5" d="M200.6,133.3c1.9,0,3.9,0,5.9,0c0.9,0,0.6,0.6,0.6,1c-0.1,1.8-0.3,4.2,0.8,5.7c1.6,2.2,4,1.3,6.2,1.5
			c2.2,0.4,4,1.9,4.9,3.9c0.7,2,0.5,4.2-0.5,6c-1.1,1.8-2.6,3.3-4.3,4.4c-7.2,4.6-16.2,5.2-23.9,1.4c-3-1.5-5.9-3.9-6.8-7.1
			c-1.2-4,1.2-6.3,4-8.4c2.7-2-0.1-6.1,2.9-7.1C193.6,133.4,197.1,133,200.6,133.3z"/>
		<path class="st6" d="M175.4,106.8c0.4-3.3,1-6.2,2.9-8.8c1.3-1.5,2.8-2.7,4.6-3.5c5.8-3.2,12.3-4.9,18.9-4.9
			c6.4,0.1,12.8,0.8,19,2.1c2.1,0.4,2.7,1.6,2.2,3.7c-2,8.6-3,17-5,25.6c-4.3,18.1-30.6,20.6-39.5,5.1c-1.5-2.6-1.9-4.4-4.8-5.7
			c-2.2-1-4.8-1-6.5-3c-1.1-1.2-2-2.6-2.6-4.1c-1.8-4.7,1.7-9.8,6.9-8.8C172.1,104.7,175.5,105.8,175.4,106.8z"/>
		<path class="st6" d="M172.9,222.5c-0.1,5,0.2,10-0.3,15c-0.3,3.1-1.9,4.7-5.1,5.3c-4.4,0.8-9,0.2-13.1-1.6
			c-4.5-1.9-5.6-4.5-4.8-9.7c1.3-8.2,3.4-16.3,5.4-24.4c1.1-4.3,2.5-10.4,8.2-10.1c2.8,0.1,5.3,1.6,6.7,4c2,3.1,3,6.7,3.1,10.4
			C172.9,215.1,172.9,218.8,172.9,222.5z"/>
		
			<linearGradient id="SVGID_00000100379955623436106590000001055902715611772081_" gradientUnits="userSpaceOnUse" x1="371.9434" y1="1042.2382" x2="460.2013" y2="1042.2382" gradientTransform="matrix(1 0 0 1 -220.24 -850)">
			<stop  offset="0" style="stop-color:#1F3399"/>
			<stop  offset="1" style="stop-color:#0D1C81"/>
		</linearGradient>
		<path style="fill:url(#SVGID_00000100379955623436106590000001055902715611772081_);" d="M239.3,161.5c-1.2-6.4-2.1-12.9-1.1-19.4
			c0.6-3.8,1.4-4.7-2.8-5.1c-5.8-0.6-14.2,1.1-19.8,2.6c-3.6,0.9-3.1,3.3-4.2,6.5c-1.4,4.1-5.9,6.8-10.2,6.8s-8.5-2.2-11.6-5.3
			c-1.4-1.4-2.4-3-3.7-4.5s-1.7-1.2-3.4-0.2c-18.6,10.5-27.3,34.3-30.7,54.1c-0.2,1-0.1,2,0.4,2.8c2.2,3.2,4.6,6.3,7.2,9.1
			c2.3,2.8,4.7,5.7,7.8,7.5c2.3,1.4,2.8,2.7,2.7,5.2c-0.2,6-0.1,11.9,0.2,17.9c0.1,2.9,0.2,3.2,3,4.1c8.5,2.7,17.4,4,26.4,4
			c1.9,0,3.7-0.1,5.6-0.2c4-0.2,7.9-0.7,11.9-1.5c2.7-0.5,7.9-1.1,10-3c1.8-1.7,1.9-4,1.5-6.2c-0.5-3.4-0.8-6.9-0.9-10.3
			c-0.4-5.3-1.6-10.7-1.6-16c0-6.1-2.1-11.8,0.6-17.4c2.4-4.9,2.7-9.9,2.9-15.2c0.1-3.5,3-6.1,5.7-8c3.3-2.3,5.5-2.3,4.7-6.2
			C239.6,163,239.5,162.2,239.3,161.5z"/>
		<path class="st8" d="M170.1,211.3c0-4.1,0.4-8.1,0.6-12.2c0.2-3.6,0.6-7.1,0.8-10.6c0.1-2.8,0.6-5.6,0.7-8.5
			c0-0.5,0.1-1.4,0.6-1.3s0.4,0.9,0.4,1.4c-0.3,2.4-0.5,4.8-0.6,7.1c-0.2,3.3-0.6,6.6-0.9,9.9c-0.1,1.7-0.3,3.4-0.4,5.1
			c-0.1,4.5-0.6,9-0.4,13.5c0,0.3,0,0.6,0,0.8c0,0.3,0,0.6-0.4,0.6s-0.4-0.4-0.4-0.6C170.1,214.8,170.1,213,170.1,211.3z"/>
		<path d="M191.8,111.5c-1,0-1.6-0.8-1.5-1.9s1.2-2,2.3-1.8l0,0c0.9,0.1,1.6,0.8,1.6,1.7C194,110.6,193,111.5,191.8,111.5z"/>
		<path d="M209.9,108.6c0.1-1.2,0.6-1.8,1.5-1.7c1.2,0.1,2,0.7,2,1.6c-0.1,1.2-1.1,2-2.3,2C210.2,110.4,209.9,109.8,209.9,108.6z"/>
		<path class="st9" d="M206.1,116.4c-0.2,1.4-1.2,2.5-2.5,3c-0.2,0-0.3,0-0.4-0.2c-0.1-0.1-0.1-0.3,0-0.4c0.3-0.3,0.7-0.5,1.1-0.8
			c1-0.8,1.1-1.4,0.6-2.6c-0.9-1.9-1.4-3.9-1.5-5.9c0-0.3,0-0.6,0-0.8c0-0.2,0.2-0.3,0.3-0.3l0,0c0.2,0,0.3,0.1,0.3,0.3
			c0.2,2.5,0.9,5,2,7.3C206,116.2,206.1,116.3,206.1,116.4z"/>
		<path class="st10" d="M194.8,103.4c-2.3-2-5.6-2.4-8.3-0.9c-0.5,0.3-0.2,1.1,0.3,0.8c2.4-1.3,5.3-1,7.4,0.8
			C194.7,104.5,195.2,103.8,194.8,103.4z"/>
		<path class="st10" d="M215.8,102.3c-2.5-1.8-5.8-1.8-8.3,0c-0.5,0.3-0.1,1.1,0.4,0.8c2.2-1.6,5.2-1.6,7.4-0.1
			C215.8,103.4,216.3,102.6,215.8,102.3z"/>
		<path class="st9" d="M170.9,113.3c-2,0.3-3-4.9-0.5-4.8c0.6,0,0.5-0.8,0-0.9c-3.7-0.5-2.8,7.3,0.8,6.6
			C171.8,114.1,171.5,113.2,170.9,113.3z"/>
		
			<linearGradient id="SVGID_00000100358774687512921750000010729755156939340691_" gradientUnits="userSpaceOnUse" x1="406.85" y1="924.0407" x2="426.62" y2="945.4307" gradientTransform="matrix(1 0 0 1 -220.24 -850)">
			<stop  offset="0" style="stop-color:#F7327A"/>
			<stop  offset="1" style="stop-color:#D80E6A"/>
		</linearGradient>
		<path style="fill:url(#SVGID_00000100358774687512921750000010729755156939340691_);" d="M186.2,100.3c3.9,0.4,7.8-0.4,11.2-2.3
			c1.7-0.9,3.3-2.1,4.7-3.4c0.7-0.7,1.3-1.4,1.9-2.1c0.4-0.7,0.9-1.3,1.4-1.9c1.3,1.8,2.1,3.8,3.8,5.4c3.2,3.1,8,4,12.2,2.3
			c3.8-1.7,5.4-5.6,5.3-9.6c-0.8-20.8-31.3-21.6-45.3-15.8c-6.1,2.7-10,8.6-10.2,15.2C171.2,96.4,179,99.6,186.2,100.3L186.2,100.3z
			"/>
		<path class="st9" d="M194.4,125.3c-2.1,0.2-4.1-1.1-4.8-3.1c-0.2-0.5-1-0.3-0.8,0.2c0.8,2.4,3.1,4,5.6,3.8
			C195,126.1,195,125.3,194.4,125.3z"/>
		<path class="st8" d="M225.2,194.8c-4.5,1.5-9.3,2.2-14.1,1.9c-0.5,0-0.5,0.8-0.1,0.9c4.9,0.3,9.8-0.3,14.5-2
			c0.2-0.1,0.3-0.4,0.1-0.6C225.5,194.9,225.4,194.8,225.2,194.8z"/>
		<path class="st8" d="M228.2,175c-3.5-6.7-5.7-14.1-6.2-21.6c0-0.6-0.9-0.5-0.9,0c0.4,7.7,2.6,15.3,6.4,22.1
			C227.8,175.9,228.5,175.4,228.2,175z"/>
		<path class="st12" d="M205.1,88.7c-1.3-2.8-2.1-5.8-2.4-8.8c-0.1-0.6-0.9-0.6-0.9,0c0.2,3.2,1.1,6.4,2.5,9.3
			C204.5,89.6,205.3,89.2,205.1,88.7z"/>
		<polygon class="st13" points="172.1,247.2 261.2,246.5 270.3,248.3 189.8,249 		"/>
		<path class="st14" d="M175.5,250.6l14.3,1.4v-3l-17.7-1.8v1.1C172.1,249.4,173.5,250.4,175.5,250.6z"/>
		<path class="st8" d="M189.8,252.1l78.5-0.6c1.1,0,2-0.8,2-1.9l0,0v-1.2l-80.5,0.6V252.1z"/>
		
			<linearGradient id="SVGID_00000010271534302390059620000003793402274930379675_" gradientUnits="userSpaceOnUse" x1="3941.7219" y1="1056.8086" x2="3972.8215" y2="1096.0586" gradientTransform="matrix(-1 0 0 1 4194.73 -850)">
			<stop  offset="0" style="stop-color:#65A3F8"/>
			<stop  offset="1" style="stop-color:#5884E7"/>
		</linearGradient>
		<path style="fill:url(#SVGID_00000010271534302390059620000003793402274930379675_);" d="M189.8,249h80.5l21.9-53.9
			c0.8-1.8-0.1-4-2-4.7c-0.4-0.2-0.9-0.3-1.4-0.3h-68.7c-3.9,0-7.4,2.4-8.8,6L189.8,249z"/>
		<path class="st0" d="M237.5,220.1c-1.3,4.9,1.3,9.8,5.8,10.9s9.1-1.8,10.4-6.7s-1.4-9.8-5.8-10.9S238.8,215.3,237.5,220.1z"/>
		<g>
			<g>
				<defs>
					<rect id="SVGID_00000019667760689205469710000012545522807942777751_" x="-201.2" y="-70" width="598.7" height="399.2"/>
				</defs>
				<clipPath id="SVGID_00000105399909580114947280000018430864199921249958_">
					<use xlink:href="#SVGID_00000019667760689205469710000012545522807942777751_"  style="overflow:visible;"/>
				</clipPath>
				<g style="clip-path:url(#SVGID_00000105399909580114947280000018430864199921249958_);">
					<path class="st17" d="M340.9,154.8c-5.1-7.6-10.1-15.2-15.2-22.8c-2-3.1-4.1-6.1-6.4-8.9c-1-1.2-1.8-2.5-2.7-3.4
						c-0.1-1.8-0.4-3.7-0.5-5.4c0-3.5,0.4-6.9,1.1-10.3c0.4-2.6,1.2-5.1,1.4-7.8c0.2-1.6,0.2-3.1-0.2-4.7c-0.5-1.9-2.7-4.2-4.8-3.1
						c-1,0.6-1.8,1.6-2.1,2.7c-0.3,1.1-0.4,2.3-0.5,3.5c-0.3,3.2-1.1,6.3-2.4,9.3c-0.2,0.6-0.5,1.3-0.9,1.8
						c-0.3,0.3-0.5,0.3-0.7-0.4s0.4-2,0.7-2.7c0.5-1.4,1-3.6-1-4.2c-1-0.2-1.2,0.7-1.6,1.4c-1.2,2.1-2.2,4.3-2.9,6.7
						c-0.8,3.3-0.5,6.8,1,9.9c1.6,3.4,3.3,6.9,4.6,10.4c1.1,3,1.5,5.7,2.8,8.6c5.7,12.3,9,27.7,19.1,37.3c3.2,3.1,6.2,6.5,9.4,9.6
						l10.6,10.1l16.9-23.1L340.9,154.8z"/>
					<path class="st3" d="M381.4,147.3c0.7,0,1.2-0.2,1.2,1.1c0,3,1.1,6.8,3.4,8.9c1.6,1.5,6.1,2.1,6.6,4.6
						c1.3,6.5-12.7,11.5-17.1,11.6c-4.2,0.1-8.7-1.2-11.3-4.6c-4.3-5.6,0.9-10.7,2.9-15.9c0.4-1.1,0.7-2.3,0.9-3.4
						c0.1-0.6,0.3-0.9,0.9-0.9C373.1,148.2,377.3,147.8,381.4,147.3z"/>
					<path class="st6" d="M372.3,150.4c-6.9,0.3-13.7-2-19-6.4c-4.1-3.3-6.9-7.3-7.1-12.8c-0.1-2.3,0.3-4.7,1.1-6.9
						c2.1-5.8,3.9-11.6,3.7-17.8c0-0.9,0.7-1.5,1.1-2.1c4.7-5.7,11.6-9.2,18.9-9.5c7.9-0.7,15.7,2.3,21,8.2c2.6,2.8,3.5,6.3,4.1,9.9
						c0.3,1.9,0.5,3.9,0.6,5.8c0.1,1.3,1.2,0.7,1.5,0.6c2-1.3,3.7-0.5,5.1,0.9s2,3.5,1.5,5.4c-0.7,3.7-3.4,5.4-6.7,6.3
						c-1.2,0.2-2.2,1.1-2.4,2.3c-0.7,2.7-2.3,4.9-3.9,7.2c-3.7,5.4-9.2,7.5-15.1,8.8C375.3,150.4,373.8,150.5,372.3,150.4z"/>
					
						<linearGradient id="SVGID_00000112617008930257007430000012909215715816417450_" gradientUnits="userSpaceOnUse" x1="584.7076" y1="928.3106" x2="596.3276" y2="950.8806" gradientTransform="matrix(1 0 0 1 -220.24 -850)">
						<stop  offset="0" style="stop-color:#1F3399"/>
						<stop  offset="1" style="stop-color:#0D1C81"/>
					</linearGradient>
					<path style="fill:url(#SVGID_00000112617008930257007430000012909215715816417450_);" d="M376.8,79.6c4.1-1.2,8.6-0.5,12.1,1.9
						c0.7,0.5,1.3,1.1,1.9,1.7c0.1,0.1,0.9,1.5,0.6,1.5c6.2,0.6,11.4,6.7,13.8,12c2.7,6.1,2.2,13,0.1,19.2c-0.5,1.5-0.8,3.6-2.5,4.1
						c-0.8,0.2-1.5,0-2.3,0.3c-0.9,0.4-1.7,1.1-2.3,1.8c-0.5,0.5-1,1.1-1.5,1.5c-1.9,1.4-4.1,0.8-4.9-1.6c-0.3-1-0.3-2.1-0.2-3.1
						l0.9-10.6c0.5-5.4-4.7-6.5-9.1-5.3c-8.4,2.3-16.7,7-25.8,5.4c-4.7-0.8-10.5-2.9-12.8-7.5c-1.7-3.6-1.4-7.8,0.8-11.1
						c1.4-2,6.7-4.3,8.5-1.4c-2.1-3.4,0.2-8.5,3.4-10.5c2.5-1.7,5.6-2.4,8.7-2.1c1.5,0.3,2.9,0.9,4.1,1.8c1.3,0.9,1.8,2.2,2.6,3.7
						C374.1,80.5,375.4,79.9,376.8,79.6z"/>
					<path d="M360,121.3c-0.9,0-1.5-0.7-1.5-1.6l0,0c0.1-0.9,0.8-1.5,1.6-1.6c0.9-0.1,1.7,0.5,1.8,1.4s-0.5,1.7-1.4,1.8
						C360.3,121.4,360.2,121.4,360,121.3z"/>
					<path class="st9" d="M368.6,121c-0.3,3.1-1.1,6.1-2.5,8.8c-0.7,1.2-0.5,1.4,0.5,2.4c0.3,0.4,1.4,0.6,0.8,1.2
						c-0.5,0.5-1-0.4-1.5-0.7c-1-0.5-1.4-1.8-0.9-2.8c0-0.1,0.1-0.1,0.1-0.2c1.6-2.6,2.1-5.4,2.6-8.3c0-0.2,0-0.4,0.1-0.6
						s0.2-0.5,0.6-0.4S368.6,120.6,368.6,121z"/>
					<path d="M379.5,122.9h-0.3c-2.2-0.3-1.4-3.2,0.6-3.1C382.1,120,381.6,122.8,379.5,122.9z"/>
					<path class="st9" d="M379.6,136.6c0,0.1-0.1,0.3-0.2,0.4c-1.1,1.9-3,3.2-5.2,3.5c-0.3,0.1-0.7,0-0.8-0.4s0.3-0.4,0.6-0.4
						c2-0.3,3.7-1.5,4.7-3.1c0.1-0.3,0.4-0.4,0.7-0.3l0,0C379.5,136.3,379.5,136.4,379.6,136.6z"/>
					<path class="st9" d="M401.9,125.9c-0.1,1.4-0.9,2.6-2,3.4c-0.3,0.1-0.7,0.2-0.9,0s0.2-0.5,0.4-0.7c0.7-0.5,1.2-1.1,1.4-1.9
						c0.3-0.8,0.4-1.3-0.7-1.2c-0.2,0-0.5,0-0.5-0.2s0.2-0.4,0.5-0.6C401.1,124.2,401.8,124.7,401.9,125.9z"/>
					<path class="st10" d="M363.7,111c-2-1.3-4.6-1.8-6.9-1.1c-0.5,0.1-0.3,1,0.2,0.9c2.2-0.5,4.4-0.1,6.3,1.1
						C363.8,112,364.2,111.2,363.7,111z"/>
					<path class="st10" d="M385.4,114c-2.4-2.3-6-2.7-8.9-1.2c-0.5,0.3-0.2,1.1,0.4,0.8c2.6-1.4,5.8-0.9,8,1.1
						C385.2,115.1,385.8,114.4,385.4,114z"/>
					
						<linearGradient id="SVGID_00000139269954697682545160000017766189608043783557_" gradientUnits="userSpaceOnUse" x1="3002.8833" y1="1043.8004" x2="3110.4126" y2="1043.8004" gradientTransform="matrix(-1 0 0 1 3416.7896 -850)">
						<stop  offset="0" style="stop-color:#F7327A"/>
						<stop  offset="1" style="stop-color:#D80E6A"/>
					</linearGradient>
					<path style="fill:url(#SVGID_00000139269954697682545160000017766189608043783557_);" d="M337.7,178.8
						c-5.2-5.1-10.8-9.9-15.4-15.6c-7.2-8.8-13.1-18.9-15.8-29.9l10.5-8.4c0.9-0.8,1.9-1.4,3.1-1.6c1.9-0.1,3.3,1.6,4.4,3.1
						c4.1,5.7,8.2,11.4,12.3,17.1c1.8,2.8,4.1,5.4,6.6,7.6c6.1,4.9,13.9,6.2,21.5,6.7c-0.5,5.7,6.5,8.1,11,7.4
						c4.8-0.7,9.6-3.7,9.3-9.1c0-1,8.9,1.9,9.5,2.1c7.4,3.1,15.5,10.9,17.3,18.9c2.1,9,2.1,18.3,1.7,27.4c-0.1,4.8-0.7,9.6-1.8,14.3
						c-3.6,13.8-4,23-4.8,37.4c-0.2,2.9-0.2,3.2-3,4.1c-8.5,2.7-17.4,4.1-26.3,4c-1.9,0-3.7-0.1-5.6-0.2c-4-0.2-7.9-0.7-11.9-1.5
						c-11.3-2.3-17.4-5.7-16.4-18.4l2.4-32.3c0.6-8.1,4-19.4-1.8-26.2C342.4,183.5,340.1,181.1,337.7,178.8z"/>
					<path class="st3" d="M351.8,266.3c6-2.4,9.8-7.3,15.2-10.6c0.4-0.2,0.8-0.5,0.9-0.9s-0.3-1-0.7-1.3c-1.3-1.3-2.7-2.4-4.2-3.5
						c-0.6-0.4-1.4-0.8-2.1-1c-5.7-1.7-12.5,3.2-16.4,6.8c-1.5,1.4-3.8,3.3-2.5,5.5c0.3,0.5-1.1,1.7-1.3,2.2
						c-0.4,0.6-0.4,1.4-0.1,2.1c0.7,1.1,2.1,1,3.3,0.8s2.1-0.8,3.1,0.5c0.8,1,2.7,0.3,3.7,0C350.9,266.6,351.3,266.5,351.8,266.3z"
						/>
					
						<linearGradient id="SVGID_00000042005235548333127810000010970486557669568948_" gradientUnits="userSpaceOnUse" x1="799.4739" y1="524.5752" x2="818.7739" y2="541.9452" gradientTransform="matrix(0.9597 -0.281 0.281 0.9597 -523.7387 -64.3543)">
						<stop  offset="0" style="stop-color:#F7327A"/>
						<stop  offset="1" style="stop-color:#D80E6A"/>
					</linearGradient>
					<path style="fill:url(#SVGID_00000042005235548333127810000010970486557669568948_);" d="M416.8,194.8c-0.6-3.5-1.3-7-2.2-10.5
						c-1.2-5.2-2.2-11.1-5.7-15.4c-4.9-6.1-16.7-7.4-21.7-0.8c-4.8,6.2-3.9,12.2-1.2,19.1c3,7.6,5,14.7,4.4,23
						c-0.4,6.7-2.8,14.1-8.4,18.2c-7.8,5.8-15.7,11.4-24.5,15.7c-0.6,0.3-1.2,0.7-1.8,1.1c-1.1,0.6-1.5,1.9-0.9,3
						c0.1,0.1,0.1,0.2,0.2,0.3c1.7,2.8,4.4,4.5,6.8,6.4c1.3,1.2,2.8,2.2,4.3,3.1c1.8,1,3.9,0.8,5.9,0.4c9.3-1.9,19-6.2,27.2-10.9
						c0.8-0.4,1.5-0.9,2.3-1.4c7.1-4.4,13.4-11.1,16-19.2s1.3-16.7,0.2-24.9C417.6,199.7,417.2,197.2,416.8,194.8z"/>
					<path class="st12" d="M387.8,197.9c-1.5-6.4-2.9-12.8-4.4-19.1c-0.1-0.6-1-0.3-0.8,0.3c1.4,6.6,3,13.2,4.5,19.8
						c1.5,6.4,3,13.1,1.3,19.6c-1.7,6.3-6.4,9.9-11.7,13.3c-5.8,3.7-11.7,7.4-17.5,11.1c-0.5,0.3,0,1.1,0.5,0.8
						c4.9-3.1,9.9-6.2,14.8-9.4c4-2.5,8.3-4.9,11.3-8.6C392.2,217.7,389.9,206.9,387.8,197.9z"/>
				</g>
			</g>
		</g>
		<path class="st5" d="M127.5,182.2c2,0,4,0,6,0c1,0,0.7,0.6,0.6,1c-0.1,2.2,0,4.5,1.3,6.4c0.2,0.3,0.3,0.7,0.6,0.8
			c2,1,1,2.2,0.1,3.3c-5,6-14.5,7.6-20.6-0.8c-0.7-0.8-0.9-2-0.5-3c0.6-1.3,0.7-2.8,0.3-4.2c-0.4-1.5,0.4-1.9,1.5-2.2
			C120.3,182.4,124,181.9,127.5,182.2z"/>
		<path class="st6" d="M101.6,154.9c0.4-3.4,1-6.4,3-9.1c1.3-1.5,2.9-2.8,4.7-3.6c6-3.3,12.7-5,19.5-5c6.6,0.1,13.1,0.8,19.6,2.2
			c2.1,0.4,2.8,1.7,2.3,3.8c-1,3.5-1.8,7-2.4,10.6c-0.2,2.3,0.1,4.7,1,6.8c3.6,10.1-6.5,19.9-15,23.4c-9.8,4.1-21.6,2.2-29.1-5.6
			c-0.2-0.2-0.4-0.4-0.6-0.6c-2.3-2.6-4-5.7-5-9c0-0.3-0.2-0.6-0.5-0.8c-0.5-0.3-1.5,0.1-2,0.1c-1.6-0.2-3-1-4-2.2
			c-1.2-1.2-2.1-2.7-2.7-4.2c-1.8-4.8,1.8-10.1,7.2-9.1C98.2,152.7,101.8,153.9,101.6,154.9z"/>
		<path class="st6" d="M221.2,186.8c0.5-1.5,0.4-3.2-0.2-4.6c-0.9-2.1-2.6-0.3-3.2,1.2c0.6-1.4,3.6-5.4,0.5-6.1
			c-1.5-0.3-2.6,0.5-3.7,1.6c-3.4,3.8-5.7,9.6-7.9,14.1c-0.4-2.1,0.8-9.5-2.6-9.2c-1.5,0.1-1.9,3-2.3,4.2c-0.8,2.9-1.5,6.1-2.2,9.1
			c-0.5,1.5-0.8,3-1,4.6c0,1.6,0.7,3.1,0.4,4.7c-0.5,2.5-1.3,4.8-2.5,7c-1.9,3.1-3.7,6.3-5.2,9.6c-3,6.8-7.5,12.8-10.4,19.7
			c-0.7,1.6-2.3-2-2.7-2.6c-0.8-1.5-1.6-3.1-2.4-4.6c-2.4-4.4-4.1-9.1-6.1-13.8c-0.9,0.7-1.5,1.5-2,2.5c-3.1,6.7-6.7,13.1-10,19.7
			c-0.3,0.5-0.7,1-0.3,1.9c3.1,6.8,6.7,13.2,10.9,19.4c2,2.9,3.5,6,6,8.5c3.3,3.2,8.3,4,12.5,1.9c3.3-1.6,4.7-4.9,5.7-8.3
			c1.2-4.1,2.5-8.2,3.8-12.4c2.9-8.7,6-17.3,8.5-26.1c1.1-4,2.5-7.8,4.1-11.6c0.9-2.1,2.3-4.5,2.7-7c1.1-2,1.8-4.3,3.4-6.1
			c0.1-0.1,0.2-0.2,0.3-0.3c1.9-3,4.1-5.9,5.7-9.1c0.8-1.5,1.2-3.1,1.3-4.8c0-0.8,0.1-1.3-0.7-1.5c-0.6-0.1-1.1,0.2-1.4,0.6
			C220.6,188.4,221,187.6,221.2,186.8z"/>
		<path class="st6" d="M99,274.2c-0.1,5.2,0.2,10.4-0.3,15.5c-0.3,3.2-2,4.9-5.3,5.4c-4.6,0.8-9.3,0.2-13.6-1.6
			c-4.6-2-5.7-4.7-4.9-10c1.3-8.5,3.5-16.8,5.5-25.1c1.1-4.4,2.6-10.7,8.5-10.4c2.9,0.1,5.5,1.7,6.9,4.1c2,3.2,3.1,6.9,3.2,10.7
			C99.1,266.6,99,270.4,99,274.2z"/>
		
			<linearGradient id="SVGID_00000032646170970977948100000017409221252744004739_" gradientUnits="userSpaceOnUse" x1="297.399" y1="1094.8564" x2="394.0825" y2="1094.8564" gradientTransform="matrix(1 0 0 1 -220.24 -850)">
			<stop  offset="0" style="stop-color:#FBC733"/>
			<stop  offset="1" style="stop-color:#FB7F37"/>
		</linearGradient>
		<path style="fill:url(#SVGID_00000032646170970977948100000017409221252744004739_);" d="M126.4,300.3c-9.2,0-18.4-1.4-27.2-4.2
			c-2.9-0.9-2.9-1.2-3.1-4.3c-0.4-6.1-0.5-12.3-0.2-18.5c0.1-2.6-0.4-4-2.8-5.4c-3.2-1.9-5.6-4.9-8-7.8c-2.7-3-5.2-6.1-7.4-9.5
			c-0.5-0.9-0.7-1.9-0.4-2.9c3.6-20.4,12.5-45,31.7-55.8c1.2-0.7,2.5-1.3,3.8-1.9c2.1-0.9,2.3-0.1,3.4,1.3c3.4,4.2,8.2,5.1,13.3,4
			c2.6-0.6,4.2-2.5,5.4-4.7c0.3-0.9,1.2-1.4,2.1-1.1c0.1,0,0.2,0.1,0.3,0.2c7,2.8,14.3,6,20.1,11c6.7,5.9,12.1,13.1,15.9,21.1
			c0.8,1.4,0.7,3.1-0.2,4.5c-2.7,5.2-5.9,10.2-8.8,15.3c-1.2,2.1-2.2,4.3-3.5,6.3c-2,3.1-2,6.4-1.5,10c0.7,4.5,1,9.1,1.5,13.6
			c0.4,3.3,0.9,6.7,1.5,10c0.5,2.8,0.7,5.6,0.6,8.4c0,1.2-1,1.5-1.6,2c-8.1,5.7-19.3,7.5-29,8.1
			C130.3,300.3,128.4,300.3,126.4,300.3z"/>
		
			<linearGradient id="SVGID_00000019636544794477514130000016084159154953093006_" gradientUnits="userSpaceOnUse" x1="349.9115" y1="978.1606" x2="342.0715" y2="998.4306" gradientTransform="matrix(1 0 0 1 -220.24 -850)">
			<stop  offset="0" style="stop-color:#1F3399"/>
			<stop  offset="1" style="stop-color:#0D1C81"/>
		</linearGradient>
		<path style="fill:url(#SVGID_00000019636544794477514130000016084159154953093006_);" d="M126.4,122.1c3.4-2.1,6.9-3.9,10.5-5.4
			c2.5-1,5.3-1.3,7.9-0.7c4.3,1.1,6.9,5.4,5.8,9.7c-0.2,1-0.7,1.9-1.2,2.7c-0.2,0.4-0.8,0.5-0.6,1.2l0.6-0.1c5-1.1,6.9,1.8,6.1,6.1
			c-1.2,6.6-13.1,8.9-18.5,9.5c-8,0.9-16.5-1.8-24.2,0.9c-3.1,1.1-6.5,6-6.6,9.6c0,0.7,0,1.4,0,2.1c-0.1,2-1.9,3.5-3.9,3.4
			c-0.1,0-0.2,0-0.4,0c-0.8-0.1-0.6-0.8-0.5-1.2c0.1-1.6-0.2-3.2-1-4.6c-0.9-1.9-2.9-3-5-2.6c-1.3,0.2-1.3-0.2-1.3-1.2
			c0-8.8,4-17.6,9.9-24.1c3.4-3.8,7.7-6.7,12.6-8.3C119.8,117.9,126.3,117.2,126.4,122.1z"/>
		<path class="st0" d="M125.9,172c0.9,0,1.8,0,2.7,0c4,0.1,3.4,3.9,1,5.9c-3.4,2.7-8.9,0.8-11.2-2.4c-1-1.4-0.5-2.8,1.2-3.1
			C121.6,172.1,123.8,172,125.9,172z"/>
		<path class="st23" d="M96.1,262.7c0-4.2,0.4-8.4,0.6-12.5c0.2-3.7,0.6-7.3,0.8-11c0.1-2.9,0.6-5.8,0.7-8.7c0-0.5,0-1.4,0.7-1.4
			s0.5,0.9,0.4,1.5c-0.3,2.5-0.5,4.9-0.6,7.4c-0.3,3.4-0.7,6.8-0.9,10.2c-0.1,1.8-0.3,3.5-0.4,5.3c-0.1,4.6-0.6,9.3-0.4,14
			c0,0.3,0,0.6,0,0.9s0,0.6-0.4,0.6s-0.4-0.4-0.4-0.6C96.1,266.3,96.1,264.5,96.1,262.7z"/>
		<path class="st23" d="M150.8,221.2c0-0.2,0-0.6,0.4-0.6s0.5,0.3,0.5,0.5c0.3,1.4,0.6,2.8,0.9,4.2c1.4,7.5,3,15,5,22.4
			c0.1,0.5,0.2,1,0.4,1.5s0.1,0.7-0.2,0.9s-0.5-0.3-0.6-0.6c-0.1-0.4-0.2-0.9-0.3-1.3c-2.5-8.8-4.1-17.7-6-26.6
			C150.8,221.4,150.8,221.3,150.8,221.2z"/>
		<path d="M118.5,159.7c-1,0-1.6-0.8-1.6-2c0.1-1.2,1.2-2,2.4-1.9c0.9,0.1,1.7,0.8,1.7,1.8C120.8,158.8,119.7,159.7,118.5,159.7z"/>
		<path class="st9" d="M175.8,256.6c-0.3-0.1-0.5-0.3-0.4-0.6c0-0.1,0-0.1,0.1-0.2c0.7-1.8,1.2-3.6,2-5.3c0.8-2,1.8-4,2.7-5.9
			c0.1-0.3,0.3-0.5,0.4-0.8c0.1-0.1,0.3-0.2,0.4-0.1l0,0c0.1,0.1,0.3,0.3,0.2,0.4c-0.1,0.3-0.1,0.5-0.3,0.8
			c-1.7,3.5-3.2,7.1-4.5,10.7C176.4,256.1,176.1,256.4,175.8,256.6z"/>
		<path d="M137.9,156.8c0.1-1.3,0.6-1.8,1.6-1.8c1.3,0.1,2.1,0.7,2,1.6c-0.1,1.2-1.2,2.1-2.4,2.1C138.2,158.6,137.9,158,137.9,156.8
			z"/>
		<path class="st9" d="M133.2,164.8c-0.2,1.4-1.2,2.6-2.6,3.1c-0.2,0-0.3-0.1-0.4-0.2c-0.1-0.1-0.1-0.3,0-0.4
			c0.3-0.3,0.7-0.5,1.1-0.8c1-0.9,1.1-1.4,0.6-2.6c-0.9-1.9-1.4-4-1.5-6.1c0-0.3,0-0.6,0.1-0.9c0-0.2,0.2-0.3,0.3-0.3l0,0
			c0.2,0,0.3,0.2,0.3,0.3c0.2,2.6,0.9,5.2,2.1,7.5C133.2,164.6,133.2,164.7,133.2,164.8z"/>
		<path class="st8" d="M148.4,130.1c-0.1,0.2-0.2,0.3-0.4,0.4c-3.7,3.5-8.1,6.2-13,7.7c-0.3,0.1-0.7,0.5-0.9,0
			c-0.2-0.5,0.3-0.6,0.7-0.7c4.6-1.5,8.9-4,12.4-7.4c0.2-0.2,0.4-0.4,0.7-0.5C148.2,129.6,148.4,129.7,148.4,130.1z"/>
		<path class="st8" d="M119.4,128c-0.2,0-0.3-0.3-0.3-0.5c0-0.1,0.1-0.2,0.1-0.2c1.7-2.2,3.9-3.9,6.3-5.2c0.2-0.1,0.5-0.1,0.6,0.1
			c0.2,0.2,0.1,0.4-0.1,0.6c-2.4,1.2-4.5,3-6.2,5.1C119.7,127.9,119.6,128.1,119.4,128z"/>
		<path class="st10" d="M120.5,151.6c-2.1-2.4-5.4-3.1-8.4-1.9c-0.5,0.2-0.3,1.1,0.2,0.9c2.6-1.1,5.6-0.4,7.5,1.7
			C120.3,152.7,120.9,152,120.5,151.6z"/>
		<path class="st10" d="M143.1,147.9c-4.2-0.3-8.3,1.6-10.8,4.9c-0.3,0.4,0.4,1,0.7,0.6c2.4-3.1,6.2-4.8,10.1-4.5
			C143.7,148.8,143.7,147.9,143.1,147.9z"/>
		<path class="st9" d="M97,161.6c-2.1,0.4-3.1-5-0.6-4.9c0.6,0,0.6-0.8,0-0.9c-3.8-0.5-2.9,7.5,0.8,6.8
			C97.8,162.4,97.6,161.6,97,161.6z"/>
		<path class="st9" d="M207.4,196.3c0-0.3-0.6-0.2-0.6,0.1c0.2,1.7,0.1,3.4-0.2,5.1c-0.1,0.4,0.5,0.5,0.6,0.1
			C207.5,199.8,207.6,198,207.4,196.3z"/>
		<polygon class="st13" points="156.6,297.9 67.5,297.2 58.3,299 138.8,299.7 		"/>
		<path class="st14" d="M153.1,301.3l-14.4,1.4v-3.1l17.7-1.8v1.1C156.5,300.1,155.1,301.1,153.1,301.3z"/>
		<path class="st8" d="M138.8,302.7l-78.5-0.6c-1.1,0-2-0.8-2-1.9c0,0,0,0,0-0.1V299l80.5,0.6V302.7z"/>
		
			<linearGradient id="SVGID_00000060731133424599898950000009059213426018565310_" gradientUnits="userSpaceOnUse" x1="295.8692" y1="1107.4727" x2="326.9692" y2="1146.7327" gradientTransform="matrix(1 0 0 1 -220.24 -850)">
			<stop  offset="0" style="stop-color:#65A3F8"/>
			<stop  offset="1" style="stop-color:#5884E7"/>
		</linearGradient>
		<path style="fill:url(#SVGID_00000060731133424599898950000009059213426018565310_);" d="M138.8,299.6H58.3l-21.9-53.9
			c-0.8-1.8,0.1-4,1.9-4.7c0.4-0.2,0.9-0.3,1.4-0.3h68.7c3.9,0,7.4,2.3,8.8,5.9L138.8,299.6z"/>
		<ellipse transform="matrix(0.9678 -0.2516 0.2516 0.9678 -65.9934 29.6627)" class="st0" cx="83" cy="272.9" rx="8.4" ry="9.1"/>
		<polygon class="st13" points="252.9,294.9 341.9,294.2 351.1,296.1 270.6,296.7 		"/>
		<path class="st14" d="M256.3,298.3l14.3,1.4v-3.1l-17.7-1.8v1.1C252.9,297.2,254.3,298.1,256.3,298.3z"/>
		<path class="st8" d="M270.6,299.8l78.5-0.6c1.1,0,2-0.8,2-1.9l0,0v-1.2l-80.5,0.6V299.8z"/>
		
			<linearGradient id="SVGID_00000174591390522606757440000002873202695405520782_" gradientUnits="userSpaceOnUse" x1="3860.96" y1="1104.5143" x2="3892.0601" y2="1143.7643" gradientTransform="matrix(-1 0 0 1 4194.73 -850)">
			<stop  offset="0" style="stop-color:#65A3F8"/>
			<stop  offset="1" style="stop-color:#5884E7"/>
		</linearGradient>
		<path style="fill:url(#SVGID_00000174591390522606757440000002873202695405520782_);" d="M270.6,296.7h80.5l21.9-53.9
			c0.8-1.8-0.1-4-2-4.7c-0.4-0.2-0.9-0.3-1.4-0.3h-68.7c-3.9,0-7.4,2.3-8.8,5.9L270.6,296.7z"/>
		<path class="st0" d="M318.2,267.9c-1.3,4.9,1.3,9.8,5.8,10.9s9.2-1.8,10.4-6.7s-1.3-9.8-5.8-10.9S319.5,263,318.2,267.9z"/>
		<path class="st0" d="M235.4,24.6h29.8c3.8,0,6.9,3.1,6.9,6.9v14.1c0,3.8-3.1,6.9-6.9,6.9h-17.8l-3.6,4.3c-0.8,1-2.3,1.1-3.3,0.3
			c-0.1-0.1-0.2-0.2-0.3-0.3l-3.6-4.3h-1.2c-3.8,0-6.9-3.1-6.9-6.9V31.4C228.6,27.7,231.6,24.6,235.4,24.6L235.4,24.6z"/>
		
			<linearGradient id="SVGID_00000047744179877894267480000015043620641610754736_" gradientUnits="userSpaceOnUse" x1="3987.1787" y1="871.0303" x2="4015.5088" y2="906.1348" gradientTransform="matrix(-1 0 0 1 4251.7695 -850)">
			<stop  offset="0" style="stop-color:#A1C6F8"/>
			<stop  offset="1" style="stop-color:#90ABE7"/>
		</linearGradient>
		<path style="fill:url(#SVGID_00000047744179877894267480000015043620641610754736_);" d="M242.1,58.4c-0.9,0-1.8-0.4-2.4-1.2
			l-3.3-4h-0.8c-4.3,0-7.7-3.4-7.7-7.7V31.4c0-4.2,3.5-7.7,7.7-7.7h29.8c4.2,0,7.7,3.4,7.7,7.7v14.1c0,4.3-3.4,7.7-7.7,7.7H248
			l-3.3,4C243.9,58,243,58.4,242.1,58.4L242.1,58.4z M235.4,25.4c-3.3,0-6,2.7-6,6v14.1c0,3.3,2.7,6,6,6h1.6l3.8,4.7
			c0.3,0.3,0.7,0.5,1.1,0.5c0.4,0,0.9-0.2,1.2-0.5l3.8-4.7h18.2c3.3,0,6-2.7,6-6V31.4c0-3.3-2.7-6-6-6H235.4z"/>
		<path class="st27" d="M256.7,39.1c0,1.6,1.3,2.8,2.9,2.8c1.6,0,2.9-1.3,2.9-2.8c0-1.6-1.3-2.8-2.9-2.8
			C258,36.2,256.7,37.5,256.7,39.1z"/>
		<path class="st27" d="M247.5,39.1c0,1.6,1.3,2.8,2.9,2.8c1.6,0,2.9-1.3,2.9-2.9c0-1.6-1.3-2.8-2.9-2.8l0,0
			C248.8,36.2,247.5,37.5,247.5,39.1z"/>
		<path class="st27" d="M238.3,39.1c0,1.6,1.3,2.8,2.9,2.8s2.9-1.3,2.9-2.8c0-1.6-1.3-2.8-2.9-2.8C239.6,36.2,238.3,37.5,238.3,39.1
			z"/>
		<path class="st0" d="M115.9,49.5H86.1c-3.8,0-6.9,3.1-6.9,6.9v14.1c0,3.8,3.1,6.9,6.9,6.9h17.8l3.6,4.4c0.8,1,2.3,1.1,3.3,0.3
			c0.1-0.1,0.2-0.2,0.3-0.3l3.6-4.4h1.2c3.8,0,6.9-3.1,6.9-6.9V56.4C122.8,52.6,119.7,49.5,115.9,49.5z"/>
		
			<linearGradient id="SVGID_00000025423971804193983570000002993855043303653308_" gradientUnits="userSpaceOnUse" x1="307.0616" y1="895.9248" x2="335.3695" y2="931.0146" gradientTransform="matrix(1 0 0 1 -220.24 -850)">
			<stop  offset="0" style="stop-color:#A1C6F8"/>
			<stop  offset="1" style="stop-color:#90ABE7"/>
		</linearGradient>
		<path style="fill:url(#SVGID_00000025423971804193983570000002993855043303653308_);" d="M109.3,83.4c-0.9,0-1.8-0.4-2.4-1.1
			l-3.3-4H86.1c-4.2,0-7.7-3.5-7.7-7.7V56.4c0-4.2,3.4-7.7,7.7-7.7h29.8c4.2,0,7.7,3.5,7.7,7.7v14.1c0,4.2-3.4,7.7-7.7,7.7h-0.8
			l-3.3,4C111.1,82.9,110.2,83.3,109.3,83.4L109.3,83.4z M86.1,50.4c-3.3,0-6,2.7-6,6l0,0v14.1c0,3.3,2.7,6,6,6h18.2l3.8,4.7
			c0.5,0.6,1.5,0.7,2.1,0.2c0.1-0.1,0.1-0.1,0.2-0.2l3.8-4.7h1.6c3.3,0,6-2.7,6-6V56.4c0-3.3-2.7-6-6-6H86.1z"/>
		<circle class="st27" cx="91.8" cy="64" r="2.8"/>
		<circle class="st27" cx="101" cy="64" r="2.8"/>
		<circle class="st27" cx="110.2" cy="64" r="2.8"/>
		<path class="st0" d="M56.5,197.7H26.7c-3.8,0-6.9,3.1-6.9,6.9v14.1c0,3.8,3.1,6.9,6.9,6.9h17.8l3.6,4.4c0.8,1,2.3,1.1,3.3,0.3
			c0.1-0.1,0.2-0.2,0.3-0.3l3.6-4.4h1.2c3.8,0,6.9-3.1,6.9-6.9v-14.1C63.4,200.7,60.3,197.7,56.5,197.7z"/>
		
			<linearGradient id="SVGID_00000083811369725465000400000009977937711248475064_" gradientUnits="userSpaceOnUse" x1="247.6469" y1="1044.0762" x2="275.9384" y2="1079.1455" gradientTransform="matrix(1 0 0 1 -220.24 -850)">
			<stop  offset="0" style="stop-color:#A1C6F8"/>
			<stop  offset="1" style="stop-color:#90ABE7"/>
		</linearGradient>
		<path style="fill:url(#SVGID_00000083811369725465000400000009977937711248475064_);" d="M49.9,231.5c-0.9,0-1.8-0.4-2.4-1.1
			l-3.3-4H26.7c-4.3,0-7.7-3.4-7.7-7.7l0,0v-14.1c0-4.2,3.5-7.7,7.7-7.7h29.8c4.2,0,7.7,3.4,7.7,7.7v14.1c0,4.2-3.4,7.7-7.7,7.7
			h-0.8l-3.3,4C51.8,231.1,50.9,231.5,49.9,231.5z M26.7,198.5c-3.3,0-6,2.7-6,6v14.1c0,3.3,2.7,6,6,6h18.2l3.8,4.6
			c0.5,0.6,1.5,0.7,2.1,0.2c0.1-0.1,0.1-0.1,0.2-0.2l3.8-4.6h1.6c3.3,0,6-2.7,6-6v-14c0-3.3-2.7-6-6-6L26.7,198.5z"/>
		<path class="st27" d="M35.3,212.1c0,1.6-1.3,2.8-2.9,2.8c-1.6,0-2.8-1.3-2.8-2.9c0-1.6,1.3-2.8,2.9-2.8l0,0
			C34,209.3,35.3,210.6,35.3,212.1z"/>
		<path class="st27" d="M44.5,212.1c0,1.6-1.3,2.9-2.9,2.9c-1.6,0-2.8-1.3-2.8-2.9s1.3-2.9,2.8-2.9
			C43.2,209.3,44.5,210.6,44.5,212.1z"/>
		<path class="st27" d="M53.6,212.1c0,1.6-1.3,2.8-2.9,2.8c-1.6,0-2.8-1.3-2.8-2.9c0-1.6,1.3-2.8,2.8-2.8
			C52.3,209.3,53.6,210.6,53.6,212.1L53.6,212.1z"/>
	</g>
</g>
</svg>
